<mxfile host="app.diagrams.net" modified="2021-10-29T10:42:41.846Z" agent="5.0 (Windows NT 10.0; Win64; x64) AppleWebKit/537.36 (KHTML, like Gecko) Chrome/95.0.4638.54 Safari/537.36" etag="LimDjhALOpbaMPTnacQs" version="15.6.2" type="github">
  <diagram id="brOQvuu6gOiBLz3USntb" name="Page-1">
    <mxGraphModel dx="2249" dy="754" grid="1" gridSize="10" guides="1" tooltips="1" connect="1" arrows="1" fold="1" page="1" pageScale="1" pageWidth="827" pageHeight="1169" math="0" shadow="0">
      <root>
        <mxCell id="0" />
        <mxCell id="1" parent="0" />
        <mxCell id="tabOsg9lAnekD2SE83QK-15" style="edgeStyle=orthogonalEdgeStyle;rounded=0;orthogonalLoop=1;jettySize=auto;html=1;entryX=0.5;entryY=0;entryDx=0;entryDy=0;" edge="1" parent="1" source="tabOsg9lAnekD2SE83QK-1" target="tabOsg9lAnekD2SE83QK-14">
          <mxGeometry relative="1" as="geometry" />
        </mxCell>
        <mxCell id="tabOsg9lAnekD2SE83QK-1" value="UI" style="rounded=0;whiteSpace=wrap;html=1;" vertex="1" parent="1">
          <mxGeometry x="120" y="170" width="600" height="60" as="geometry" />
        </mxCell>
        <mxCell id="tabOsg9lAnekD2SE83QK-7" style="edgeStyle=orthogonalEdgeStyle;rounded=0;orthogonalLoop=1;jettySize=auto;html=1;" edge="1" parent="1" source="tabOsg9lAnekD2SE83QK-3" target="tabOsg9lAnekD2SE83QK-1">
          <mxGeometry relative="1" as="geometry" />
        </mxCell>
        <mxCell id="tabOsg9lAnekD2SE83QK-3" value="User&lt;br&gt;" style="shape=umlActor;verticalLabelPosition=bottom;verticalAlign=top;html=1;outlineConnect=0;" vertex="1" parent="1">
          <mxGeometry x="405" y="20" width="30" height="60" as="geometry" />
        </mxCell>
        <mxCell id="tabOsg9lAnekD2SE83QK-8" value="User Input" style="text;html=1;align=center;verticalAlign=middle;resizable=0;points=[];autosize=1;strokeColor=none;fillColor=none;" vertex="1" parent="1">
          <mxGeometry x="414" y="110" width="70" height="20" as="geometry" />
        </mxCell>
        <mxCell id="tabOsg9lAnekD2SE83QK-12" value="" style="endArrow=none;dashed=1;html=1;dashPattern=1 3;strokeWidth=2;rounded=0;" edge="1" parent="1">
          <mxGeometry width="50" height="50" relative="1" as="geometry">
            <mxPoint y="230" as="sourcePoint" />
            <mxPoint x="830" y="230" as="targetPoint" />
          </mxGeometry>
        </mxCell>
        <mxCell id="tabOsg9lAnekD2SE83QK-13" value="&lt;h1&gt;Frontend Layer&lt;/h1&gt;&lt;div&gt;User bekommt eine Eingabemaske angezeigt und kann eine Datei hochladen und Kommandos zur Datenmanipulation eingeben&lt;/div&gt;" style="text;html=1;strokeColor=none;fillColor=none;spacing=5;spacingTop=-20;whiteSpace=wrap;overflow=hidden;rounded=0;" vertex="1" parent="1">
          <mxGeometry x="830" y="10" width="190" height="120" as="geometry" />
        </mxCell>
        <mxCell id="tabOsg9lAnekD2SE83QK-20" style="edgeStyle=orthogonalEdgeStyle;rounded=0;orthogonalLoop=1;jettySize=auto;html=1;entryX=0.5;entryY=0;entryDx=0;entryDy=0;" edge="1" parent="1" source="tabOsg9lAnekD2SE83QK-14" target="tabOsg9lAnekD2SE83QK-19">
          <mxGeometry relative="1" as="geometry">
            <Array as="points">
              <mxPoint x="420" y="440" />
              <mxPoint x="685" y="440" />
            </Array>
          </mxGeometry>
        </mxCell>
        <mxCell id="tabOsg9lAnekD2SE83QK-26" style="edgeStyle=orthogonalEdgeStyle;rounded=0;orthogonalLoop=1;jettySize=auto;html=1;entryX=0.456;entryY=0.026;entryDx=0;entryDy=0;entryPerimeter=0;" edge="1" parent="1" source="tabOsg9lAnekD2SE83QK-14" target="tabOsg9lAnekD2SE83QK-25">
          <mxGeometry relative="1" as="geometry" />
        </mxCell>
        <mxCell id="tabOsg9lAnekD2SE83QK-14" value="TransactionLayer" style="rounded=0;whiteSpace=wrap;html=1;" vertex="1" parent="1">
          <mxGeometry x="120" y="330" width="600" height="60" as="geometry" />
        </mxCell>
        <mxCell id="tabOsg9lAnekD2SE83QK-16" value="User Input" style="text;html=1;align=center;verticalAlign=middle;resizable=0;points=[];autosize=1;strokeColor=none;fillColor=none;" vertex="1" parent="1">
          <mxGeometry x="414" y="270" width="70" height="20" as="geometry" />
        </mxCell>
        <mxCell id="tabOsg9lAnekD2SE83QK-17" value="" style="endArrow=none;dashed=1;html=1;dashPattern=1 3;strokeWidth=2;rounded=0;" edge="1" parent="1">
          <mxGeometry width="50" height="50" relative="1" as="geometry">
            <mxPoint y="390" as="sourcePoint" />
            <mxPoint x="830" y="390" as="targetPoint" />
          </mxGeometry>
        </mxCell>
        <mxCell id="tabOsg9lAnekD2SE83QK-18" value="&lt;h1&gt;Transaction Layer&lt;/h1&gt;&lt;p&gt;Verarbeitet die eingegebenen Kommandos des Users und erzeugt ein sourceDataFrame aus der hochgeladenen Datei.&lt;/p&gt;" style="text;html=1;strokeColor=none;fillColor=none;spacing=5;spacingTop=-20;whiteSpace=wrap;overflow=hidden;rounded=0;" vertex="1" parent="1">
          <mxGeometry x="830" y="240" width="290" height="150" as="geometry" />
        </mxCell>
        <mxCell id="tabOsg9lAnekD2SE83QK-21" style="edgeStyle=orthogonalEdgeStyle;rounded=0;orthogonalLoop=1;jettySize=auto;html=1;exitX=0.75;exitY=0;exitDx=0;exitDy=0;" edge="1" parent="1" source="tabOsg9lAnekD2SE83QK-19">
          <mxGeometry relative="1" as="geometry">
            <mxPoint x="460" y="390" as="targetPoint" />
          </mxGeometry>
        </mxCell>
        <mxCell id="tabOsg9lAnekD2SE83QK-19" value="ExtractionLayer" style="rounded=1;whiteSpace=wrap;html=1;" vertex="1" parent="1">
          <mxGeometry x="600" y="490" width="170" height="70" as="geometry" />
        </mxCell>
        <mxCell id="tabOsg9lAnekD2SE83QK-22" value="Liefert Datei" style="text;html=1;strokeColor=none;fillColor=none;align=center;verticalAlign=middle;whiteSpace=wrap;rounded=0;" vertex="1" parent="1">
          <mxGeometry x="490" y="445" width="60" height="30" as="geometry" />
        </mxCell>
        <mxCell id="tabOsg9lAnekD2SE83QK-23" value="Gibt ein Dataframe aus Datei zurück" style="text;html=1;strokeColor=none;fillColor=none;align=center;verticalAlign=middle;whiteSpace=wrap;rounded=0;" vertex="1" parent="1">
          <mxGeometry x="520" y="400" width="140" height="30" as="geometry" />
        </mxCell>
        <mxCell id="tabOsg9lAnekD2SE83QK-25" value="InterperEngine" style="rounded=1;whiteSpace=wrap;html=1;" vertex="1" parent="1">
          <mxGeometry x="140" y="495" width="190" height="60" as="geometry" />
        </mxCell>
        <mxCell id="tabOsg9lAnekD2SE83QK-27" value="Liefert Kommandos&amp;nbsp;" style="text;html=1;strokeColor=none;fillColor=none;align=center;verticalAlign=middle;whiteSpace=wrap;rounded=0;" vertex="1" parent="1">
          <mxGeometry x="230" y="410" width="140" height="30" as="geometry" />
        </mxCell>
        <mxCell id="tabOsg9lAnekD2SE83QK-28" value="" style="endArrow=none;dashed=1;html=1;dashPattern=1 3;strokeWidth=2;rounded=0;" edge="1" parent="1">
          <mxGeometry width="50" height="50" relative="1" as="geometry">
            <mxPoint y="560" as="sourcePoint" />
            <mxPoint x="830" y="560" as="targetPoint" />
          </mxGeometry>
        </mxCell>
        <mxCell id="tabOsg9lAnekD2SE83QK-30" value="&lt;h1&gt;Interpretation &amp;amp; Extraction Layer&lt;/h1&gt;&lt;div&gt;Aus der TransactionLayer wird die vom User geladene Datei an den jeweiligen Extractor (CSV,JSON,xlsx) weitergegeben. Dieser baut ein DataFrame aus der Datei und schickt es an das TransactionLayer zurück.&lt;/div&gt;" style="text;html=1;strokeColor=none;fillColor=none;spacing=5;spacingTop=-20;whiteSpace=wrap;overflow=hidden;rounded=0;" vertex="1" parent="1">
          <mxGeometry x="830" y="400" width="370" height="120" as="geometry" />
        </mxCell>
      </root>
    </mxGraphModel>
  </diagram>
</mxfile>
